<svg data-v-423bf9ae="" xmlns="http://www.w3.org/2000/svg" viewBox="0 0 75.26805474567844 60" class="font"><!----><defs data-v-423bf9ae=""><linearGradient data-v-423bf9ae="" gradientTransform="rotate(25)" id="1a69fd7b-8abc-4933-b868-6b1014cf8691" x1="0%" y1="0%" x2="100%" y2="0%"><stop data-v-423bf9ae="" offset="0%" style="stop-color: rgb(120, 49, 146); stop-opacity: 1;"></stop><stop data-v-423bf9ae="" offset="100%" style="stop-color: rgb(89, 188, 200); stop-opacity: 1;"></stop></linearGradient></defs><!----><g data-v-423bf9ae="" id="5754cf57-ea6c-442e-9511-84f370c4f85e" fill="#ffffff" transform="matrix(4.288777828216553,0,0,4.288777828216553,12.480344772338867,-17.15511131286621)"><path d="M3.74 4.00L3.74 4.00L3.74 4.00Q4.42 4.00 4.91 4.44L4.91 4.44L4.91 4.44Q5.39 4.87 5.39 5.52L5.39 5.52L5.39 5.52Q5.39 5.68 5.38 5.82L5.38 5.82L5.38 5.82Q5.38 5.96 5.35 6.09L5.35 6.09L4.69 6.09L4.69 6.09Q4.72 5.87 4.72 5.82L4.72 5.82L4.72 5.82Q4.72 5.77 4.72 5.71L4.72 5.71L4.72 5.71Q4.72 5.49 4.57 5.36L4.57 5.36L4.57 5.36Q4.42 5.24 4.19 5.24L4.19 5.24L4.19 5.24Q3.84 5.24 3.58 5.53L3.58 5.53L3.58 5.53Q3.32 5.82 3.21 6.38L3.21 6.38L2.97 7.49L3.99 7.49L3.89 8.05L2.86 8.05L1.25 15.61L1.25 15.61Q0.99 16.80 0.36 17.39L0.36 17.39L0.36 17.39Q-0.27 17.99-1.26 17.99L-1.26 17.99L-1.26 17.99Q-1.95 17.99-2.43 17.56L-2.43 17.56L-2.43 17.56Q-2.91 17.12-2.91 16.48L-2.91 16.48L-2.91 16.48Q-2.91 15.75-2.43 15.29L-2.43 15.29L-2.43 15.29Q-1.95 14.83-0.50 14.38L-0.50 14.38L1.19 6.38L1.19 6.38Q1.44 5.21 2.09 4.61L2.09 4.61L2.09 4.61Q2.73 4.00 3.74 4.00ZM-0.78 15.65L-0.60 14.84L-0.60 14.84Q-1.41 15.11-1.78 15.46L-1.78 15.46L-1.78 15.46Q-2.14 15.81-2.14 16.28L-2.14 16.28L-2.14 16.28Q-2.14 16.45-1.97 16.60L-1.97 16.60L-1.97 16.60Q-1.79 16.74-1.58 16.74L-1.58 16.74L-1.58 16.74Q-1.32 16.74-1.11 16.46L-1.11 16.46L-1.11 16.46Q-0.90 16.18-0.78 15.65L-0.78 15.65ZM6.36 9.11L5.53 13.03L5.53 13.03Q5.59 13.19 5.73 13.27L5.73 13.27L5.73 13.27Q5.87 13.36 6.06 13.36L6.06 13.36L6.06 13.36Q6.94 13.36 7.48 12.22L7.48 12.22L7.48 12.22Q8.02 11.09 8.02 9.59L8.02 9.59L8.02 9.59Q8.02 9.02 7.85 8.72L7.85 8.72L7.85 8.72Q7.69 8.43 7.32 8.43L7.32 8.43L7.32 8.43Q7.07 8.43 6.80 8.62L6.80 8.62L6.80 8.62Q6.54 8.81 6.36 9.11L6.36 9.11ZM5.31 14.07L4.58 17.49L2.46 17.99L4.80 6.97L6.82 6.97L6.59 8.02L6.59 8.02Q6.94 7.73 7.35 7.57L7.35 7.57L7.35 7.57Q7.76 7.42 8.23 7.42L8.23 7.42L8.23 7.42Q9.07 7.42 9.51 7.98L9.51 7.98L9.51 7.98Q9.94 8.54 9.94 9.63L9.94 9.63L9.94 9.63Q9.94 11.77 9.02 13.17L9.02 13.17L9.02 13.17Q8.11 14.57 6.50 14.57L6.50 14.57L6.50 14.57Q6.05 14.57 5.75 14.45L5.75 14.45L5.75 14.45Q5.45 14.32 5.31 14.07L5.31 14.07ZM10.70 8.05L10.81 7.49L11.27 7.49L11.69 5.56L13.76 5.28L13.29 7.49L14.13 7.49L14.01 8.05L13.17 8.05L12.28 12.25L12.28 12.25Q12.25 12.38 12.24 12.48L12.24 12.48L12.24 12.48Q12.22 12.59 12.22 12.70L12.22 12.70L12.22 12.70Q12.22 12.98 12.36 13.10L12.36 13.10L12.36 13.10Q12.49 13.22 12.80 13.22L12.80 13.22L12.80 13.22Q13.19 13.22 13.54 12.87L13.54 12.87L13.54 12.87Q13.89 12.53 14.06 11.98L14.06 11.98L14.64 11.98L14.64 11.98Q14.20 13.26 13.44 13.92L13.44 13.92L13.44 13.92Q12.68 14.57 11.70 14.57L11.70 14.57L11.70 14.57Q11.00 14.57 10.61 14.13L10.61 14.13L10.61 14.13Q10.21 13.69 10.21 12.89L10.21 12.89L10.21 12.89Q10.21 12.71 10.23 12.48L10.23 12.48L10.23 12.48Q10.26 12.25 10.32 11.98L10.32 11.98L11.16 8.05L10.70 8.05Z"></path></g><!----><!----></svg>